<svg xmlns="http://www.w3.org/2000/svg" width="71.511" height="65.047" viewBox="0 0 71.511 65.047">
  <path id="iconfinder_46.Calendar_290104" d="M66.293,70.047H7.218C3.784,70.047,1,66.982,1,63.2V11.847C1,8.066,3.784,5,7.218,5H66.293c3.434,0,6.218,3.066,6.218,6.847V63.2C72.511,66.982,69.727,70.047,66.293,70.047Zm3.109-58.2a3.279,3.279,0,0,0-3.109-3.424H7.218a3.279,3.279,0,0,0-3.109,3.424V22.118H69.4Zm0,13.694H4.109V63.2a3.279,3.279,0,0,0,3.109,3.424H66.293A3.279,3.279,0,0,0,69.4,63.2ZM63.184,49.506H60.075a1.638,1.638,0,0,1-1.555-1.712V44.371a1.639,1.639,0,0,1,1.555-1.712h3.109a1.638,1.638,0,0,1,1.555,1.712v3.424A1.637,1.637,0,0,1,63.184,49.506Zm0-11.982H60.075a1.638,1.638,0,0,1-1.555-1.712V32.388a1.638,1.638,0,0,1,1.555-1.712h3.109a1.637,1.637,0,0,1,1.555,1.712v3.424A1.637,1.637,0,0,1,63.184,37.524ZM50.747,49.506H47.638a1.638,1.638,0,0,1-1.555-1.712V44.371a1.639,1.639,0,0,1,1.555-1.712h3.109A1.638,1.638,0,0,1,52.3,44.371v3.424A1.637,1.637,0,0,1,50.747,49.506Zm0-11.982H47.638a1.638,1.638,0,0,1-1.555-1.712V32.388a1.638,1.638,0,0,1,1.555-1.712h3.109A1.637,1.637,0,0,1,52.3,32.388v3.424A1.637,1.637,0,0,1,50.747,37.524ZM38.31,49.506H35.2a1.637,1.637,0,0,1-1.555-1.712V44.371A1.638,1.638,0,0,1,35.2,42.659H38.31a1.638,1.638,0,0,1,1.555,1.712v3.424A1.637,1.637,0,0,1,38.31,49.506Zm0-11.982H35.2a1.637,1.637,0,0,1-1.555-1.712V32.388A1.637,1.637,0,0,1,35.2,30.677H38.31a1.637,1.637,0,0,1,1.555,1.712v3.424A1.637,1.637,0,0,1,38.31,37.524ZM25.874,61.488H22.764a1.637,1.637,0,0,1-1.555-1.712V56.353a1.637,1.637,0,0,1,1.555-1.712h3.109a1.637,1.637,0,0,1,1.555,1.712v3.424A1.637,1.637,0,0,1,25.874,61.488Zm0-11.982H22.764a1.637,1.637,0,0,1-1.555-1.712V44.371a1.638,1.638,0,0,1,1.555-1.712h3.109a1.638,1.638,0,0,1,1.555,1.712v3.424A1.637,1.637,0,0,1,25.874,49.506Zm0-11.982H22.764a1.637,1.637,0,0,1-1.555-1.712V32.388a1.637,1.637,0,0,1,1.555-1.712h3.109a1.637,1.637,0,0,1,1.555,1.712v3.424A1.637,1.637,0,0,1,25.874,37.524ZM13.437,61.488H10.328a1.637,1.637,0,0,1-1.555-1.712V56.353a1.637,1.637,0,0,1,1.555-1.712h3.109a1.637,1.637,0,0,1,1.555,1.712v3.424A1.637,1.637,0,0,1,13.437,61.488Zm0-11.982H10.328a1.637,1.637,0,0,1-1.555-1.712V44.371a1.638,1.638,0,0,1,1.555-1.712h3.109a1.638,1.638,0,0,1,1.555,1.712v3.424A1.637,1.637,0,0,1,13.437,49.506ZM35.2,54.641H38.31a1.637,1.637,0,0,1,1.555,1.712v3.424a1.637,1.637,0,0,1-1.555,1.712H35.2a1.637,1.637,0,0,1-1.555-1.712V56.353A1.637,1.637,0,0,1,35.2,54.641Z" transform="translate(-1 -5)" fill="#fff" fill-rule="evenodd"/>
</svg>
