<svg xmlns="http://www.w3.org/2000/svg" width="71.5" height="65.5" viewBox="0 0 71.5 65.5">
  <path id="iconfinder_07.Wallet_290143" d="M72.5,61.517h0a7.881,7.881,0,0,1-7.772,7.989H8.772A7.881,7.881,0,0,1,1,61.517V15.181A6.306,6.306,0,0,1,7.217,8.79H38.57L51.159,4.1a1.528,1.528,0,0,1,1.971.941L54.456,8.79h5.61a6.306,6.306,0,0,1,6.217,6.391v3.2h0A6.306,6.306,0,0,1,72.5,24.768ZM7.217,11.985h0a3.2,3.2,0,0,0,0,6.391h5.649c.02-.008.033-.026.053-.034l17.07-6.358Zm45.2.289L50.764,7.6h0L47.574,8.79h0l-8.571,3.2h-.016L21.834,18.377H54.572Zm10.759,2.906a3.154,3.154,0,0,0-3.109-3.2H55.584l2.26,6.391h5.33Zm3.109,6.391H7.217a6.022,6.022,0,0,1-3.109-.887V61.517A4.73,4.73,0,0,0,8.772,66.31H64.728a4.729,4.729,0,0,0,4.663-4.793V50.332H63.174a6.394,6.394,0,0,1,0-12.782h6.217V24.768A3.154,3.154,0,0,0,66.283,21.572Zm3.109,25.565V40.746H63.174a3.2,3.2,0,0,0,0,6.391Zm-6.217-4.793h3.109v3.2H63.174Z" transform="translate(-1 -4.006)" fill="#fff" fill-rule="evenodd"/>
</svg>
