<svg xmlns="http://www.w3.org/2000/svg" width="41.128" height="79.531" viewBox="0 0 41.128 79.531">
  <path id="iconfinder_27.Phone_290123" d="M45.8,80.531H17.327c-3.494,0-6.327-3.1-6.327-6.916V7.916C11,4.1,13.833,1,17.327,1H45.8c3.494,0,6.327,3.1,6.327,6.916v65.7C52.128,77.434,49.3,80.531,45.8,80.531ZM48.965,7.916A3.322,3.322,0,0,0,45.8,4.458H17.327a3.322,3.322,0,0,0-3.164,3.458v6.916h34.8Zm0,10.374h-34.8V63.241h34.8Zm0,48.41h-34.8v6.916a3.322,3.322,0,0,0,3.164,3.458H45.8a3.322,3.322,0,0,0,3.164-3.458Zm-17.4,8.645a3.472,3.472,0,1,1,3.164-3.458A3.322,3.322,0,0,1,31.564,75.344ZM20.491,23.476h3.164A1.66,1.66,0,0,1,25.237,25.2v3.458a1.66,1.66,0,0,1-1.582,1.729H20.491a1.66,1.66,0,0,1-1.582-1.729V25.2A1.66,1.66,0,0,1,20.491,23.476Zm0,12.1h3.164a1.66,1.66,0,0,1,1.582,1.729v3.458a1.659,1.659,0,0,1-1.582,1.729H20.491a1.659,1.659,0,0,1-1.582-1.729V37.307A1.66,1.66,0,0,1,20.491,35.578Zm0,12.1h3.164a1.659,1.659,0,0,1,1.582,1.729v3.458A1.659,1.659,0,0,1,23.655,54.6H20.491a1.659,1.659,0,0,1-1.582-1.729V49.41A1.659,1.659,0,0,1,20.491,47.681Zm9.491-24.2h3.164A1.66,1.66,0,0,1,34.728,25.2v3.458a1.66,1.66,0,0,1-1.582,1.729H29.982A1.66,1.66,0,0,1,28.4,28.663V25.2A1.66,1.66,0,0,1,29.982,23.476Zm0,12.1h3.164a1.66,1.66,0,0,1,1.582,1.729v3.458a1.659,1.659,0,0,1-1.582,1.729H29.982A1.659,1.659,0,0,1,28.4,40.765V37.307A1.66,1.66,0,0,1,29.982,35.578Zm0,12.1h3.164a1.659,1.659,0,0,1,1.582,1.729v3.458A1.659,1.659,0,0,1,33.146,54.6H29.982A1.659,1.659,0,0,1,28.4,52.868V49.41A1.659,1.659,0,0,1,29.982,47.681Zm9.491-24.2h3.164A1.66,1.66,0,0,1,44.219,25.2v3.458a1.66,1.66,0,0,1-1.582,1.729H39.473a1.66,1.66,0,0,1-1.582-1.729V25.2A1.66,1.66,0,0,1,39.473,23.476Zm0,12.1h3.164a1.66,1.66,0,0,1,1.582,1.729v3.458a1.659,1.659,0,0,1-1.582,1.729H39.473a1.659,1.659,0,0,1-1.582-1.729V37.307A1.66,1.66,0,0,1,39.473,35.578ZM26.819,7.916H36.31a1.66,1.66,0,0,1,1.582,1.729,1.66,1.66,0,0,1-1.582,1.729H26.819a1.66,1.66,0,0,1-1.582-1.729A1.66,1.66,0,0,1,26.819,7.916Z" transform="translate(-11 -1)" fill="#fff" fill-rule="evenodd"/>
</svg>
