<svg xmlns="http://www.w3.org/2000/svg" width="93.094" height="26.096" viewBox="0 0 93.094 26.096">
  <g id="Logo" transform="translate(-139.489 -41.729)">
    <text id="_26andfour" data-name="26andfour" transform="translate(139.489 64.825)" font-size="15" font-family="Tahoma-Bold, Tahoma" font-weight="700"><tspan x="0" y="0">26andfour</tspan></text>
    <path id="Path_1" data-name="Path 1" d="M1.871,0a1.781,1.781,0,0,1,1.8,1.8l-.054,9.522A1.831,1.831,0,0,1,1.8,13.134a1.781,1.781,0,0,1-1.8-1.8L.054,1.816A1.831,1.831,0,0,1,1.871,0Z" transform="translate(228.823 41.729) rotate(45)" fill="#009ffc"/>
    <path id="Path_2" data-name="Path 2" d="M1.871,0a1.781,1.781,0,0,1,1.8,1.8l-.054,9.522A1.831,1.831,0,0,1,1.8,13.134a1.781,1.781,0,0,1-1.8-1.8L.054,1.816A1.831,1.831,0,0,1,1.871,0Z" transform="translate(229.991 47.639) rotate(45)" fill="#04d251"/>
  </g>
</svg>
