<svg xmlns="http://www.w3.org/2000/svg" width="129.819" height="118.082" viewBox="0 0 129.819 118.082">
  <path id="iconfinder_07.Wallet_290143" d="M130.819,107.685h0a14.257,14.257,0,0,1-14.111,14.4H15.111A14.257,14.257,0,0,1,1,107.685V24.152A11.408,11.408,0,0,1,12.289,12.63H69.214L92.071,4.179a2.779,2.779,0,0,1,3.578,1.7l2.407,6.755h10.185A11.408,11.408,0,0,1,119.53,24.152v5.761h0a11.408,11.408,0,0,1,11.289,11.522ZM12.289,18.391h0a5.762,5.762,0,0,0,0,11.522H22.544c.037-.014.059-.046.1-.06L53.633,18.391Zm82.063.521-3-8.422h0l-5.788,2.14h.008L70.01,18.391h-.028L38.828,29.913h59.44Zm19.535,5.24a5.706,5.706,0,0,0-5.644-5.761h-8.136l4.1,11.522h9.677Zm5.644,11.522H12.289a10.993,10.993,0,0,1-5.644-1.6v73.61a8.557,8.557,0,0,0,8.466,8.641h101.6a8.555,8.555,0,0,0,8.466-8.641V87.522H113.886a11.524,11.524,0,0,1,0-23.044h11.289V41.435A5.706,5.706,0,0,0,119.53,35.674Zm5.644,46.087V70.239H113.886a5.762,5.762,0,0,0,0,11.522ZM113.886,73.12h5.644v5.761h-5.644Z" transform="translate(-1 -4.006)" fill="#fff" fill-rule="evenodd"/>
</svg>
