<svg xmlns="http://www.w3.org/2000/svg" width="129.819" height="118.084" viewBox="0 0 129.819 118.084">
  <path id="iconfinder_46.Calendar_290104" d="M119.53,123.084H12.289C6.054,123.084,1,117.519,1,110.654V17.43C1,10.565,6.054,5,12.289,5H119.53c6.234,0,11.289,5.565,11.289,12.43v93.224C130.819,117.519,125.764,123.084,119.53,123.084ZM125.175,17.43a5.952,5.952,0,0,0-5.644-6.215H12.289A5.952,5.952,0,0,0,6.644,17.43V36.075h118.53Zm0,24.86H6.644v68.364a5.952,5.952,0,0,0,5.644,6.215H119.53a5.952,5.952,0,0,0,5.644-6.215Zm-11.289,43.5h-5.644a2.974,2.974,0,0,1-2.822-3.107V76.472a2.976,2.976,0,0,1,2.822-3.107h5.644a2.974,2.974,0,0,1,2.822,3.107v6.215A2.972,2.972,0,0,1,113.886,85.794Zm0-21.752h-5.644a2.974,2.974,0,0,1-2.822-3.107V54.72a2.974,2.974,0,0,1,2.822-3.107h5.644a2.972,2.972,0,0,1,2.822,3.107v6.215A2.972,2.972,0,0,1,113.886,64.042ZM91.309,85.794H85.664a2.974,2.974,0,0,1-2.822-3.107V76.472a2.976,2.976,0,0,1,2.822-3.107h5.644a2.974,2.974,0,0,1,2.822,3.107v6.215A2.972,2.972,0,0,1,91.309,85.794Zm0-21.752H85.664a2.974,2.974,0,0,1-2.822-3.107V54.72a2.974,2.974,0,0,1,2.822-3.107h5.644a2.972,2.972,0,0,1,2.822,3.107v6.215A2.972,2.972,0,0,1,91.309,64.042ZM68.732,85.794H63.087a2.972,2.972,0,0,1-2.822-3.107V76.472a2.974,2.974,0,0,1,2.822-3.107h5.644a2.974,2.974,0,0,1,2.822,3.107v6.215A2.972,2.972,0,0,1,68.732,85.794Zm0-21.752H63.087a2.972,2.972,0,0,1-2.822-3.107V54.72a2.972,2.972,0,0,1,2.822-3.107h5.644a2.972,2.972,0,0,1,2.822,3.107v6.215A2.972,2.972,0,0,1,68.732,64.042Zm-22.577,43.5H40.51a2.972,2.972,0,0,1-2.822-3.107V98.224a2.972,2.972,0,0,1,2.822-3.107h5.644a2.972,2.972,0,0,1,2.822,3.107v6.215A2.972,2.972,0,0,1,46.154,107.547Zm0-21.752H40.51a2.972,2.972,0,0,1-2.822-3.107V76.472a2.974,2.974,0,0,1,2.822-3.107h5.644a2.974,2.974,0,0,1,2.822,3.107v6.215A2.972,2.972,0,0,1,46.154,85.794Zm0-21.752H40.51a2.972,2.972,0,0,1-2.822-3.107V54.72a2.972,2.972,0,0,1,2.822-3.107h5.644a2.972,2.972,0,0,1,2.822,3.107v6.215A2.972,2.972,0,0,1,46.154,64.042Zm-22.577,43.5H17.933a2.972,2.972,0,0,1-2.822-3.107V98.224a2.972,2.972,0,0,1,2.822-3.107h5.644A2.972,2.972,0,0,1,26.4,98.224v6.215A2.972,2.972,0,0,1,23.577,107.547Zm0-21.752H17.933a2.972,2.972,0,0,1-2.822-3.107V76.472a2.974,2.974,0,0,1,2.822-3.107h5.644A2.974,2.974,0,0,1,26.4,76.472v6.215A2.972,2.972,0,0,1,23.577,85.794Zm39.51,9.322h5.644a2.972,2.972,0,0,1,2.822,3.107v6.215a2.972,2.972,0,0,1-2.822,3.107H63.087a2.972,2.972,0,0,1-2.822-3.107V98.224A2.972,2.972,0,0,1,63.087,95.117Z" transform="translate(-1 -5)" fill="#fff" fill-rule="evenodd"/>
</svg>
