<svg xmlns="http://www.w3.org/2000/svg" width="84.504" height="129.713" viewBox="0 0 84.504 129.713">
  <path id="iconfinder_27.Phone_290123" d="M82.5,130.713H24c-7.18,0-13-5.05-13-11.279V12.279C11,6.05,16.821,1,24,1H82.5c7.18,0,13,5.05,13,11.279V119.433C95.5,125.662,89.683,130.713,82.5,130.713ZM89,12.279c0-3.113-2.912-5.64-6.5-5.64H24c-3.588,0-6.5,2.527-6.5,5.64V23.559H89ZM89,29.2H17.5v73.316H89Zm0,78.955H17.5v11.279c0,3.113,2.912,5.64,6.5,5.64H82.5c3.588,0,6.5-2.527,6.5-5.64Zm-35.752,14.1c-3.588,0-6.5-2.527-6.5-5.64s2.912-5.64,6.5-5.64,6.5,2.527,6.5,5.64S56.84,122.253,53.252,122.253ZM30.5,37.658H37a3.057,3.057,0,0,1,3.25,2.82v5.64A3.057,3.057,0,0,1,37,48.937H30.5a3.057,3.057,0,0,1-3.25-2.82v-5.64A3.057,3.057,0,0,1,30.5,37.658Zm0,19.739H37a3.057,3.057,0,0,1,3.25,2.82v5.64A3.055,3.055,0,0,1,37,68.676H30.5a3.055,3.055,0,0,1-3.25-2.82v-5.64A3.057,3.057,0,0,1,30.5,57.4Zm0,19.739H37a3.055,3.055,0,0,1,3.25,2.82V85.6A3.055,3.055,0,0,1,37,88.415H30.5a3.055,3.055,0,0,1-3.25-2.82v-5.64A3.055,3.055,0,0,1,30.5,77.136ZM50,37.658h6.5a3.057,3.057,0,0,1,3.25,2.82v5.64a3.057,3.057,0,0,1-3.25,2.82H50a3.057,3.057,0,0,1-3.25-2.82v-5.64A3.057,3.057,0,0,1,50,37.658ZM50,57.4h6.5a3.057,3.057,0,0,1,3.25,2.82v5.64a3.055,3.055,0,0,1-3.25,2.82H50a3.055,3.055,0,0,1-3.25-2.82v-5.64A3.057,3.057,0,0,1,50,57.4Zm0,19.739h6.5a3.055,3.055,0,0,1,3.25,2.82V85.6a3.055,3.055,0,0,1-3.25,2.82H50a3.055,3.055,0,0,1-3.25-2.82v-5.64A3.055,3.055,0,0,1,50,77.136ZM69.5,37.658H76a3.057,3.057,0,0,1,3.25,2.82v5.64A3.057,3.057,0,0,1,76,48.937H69.5a3.057,3.057,0,0,1-3.25-2.82v-5.64A3.057,3.057,0,0,1,69.5,37.658Zm0,19.739H76a3.057,3.057,0,0,1,3.25,2.82v5.64A3.055,3.055,0,0,1,76,68.676H69.5a3.055,3.055,0,0,1-3.25-2.82v-5.64A3.057,3.057,0,0,1,69.5,57.4Zm-26-45.117H63a3.057,3.057,0,0,1,3.25,2.82A3.057,3.057,0,0,1,63,17.919H43.5a3.057,3.057,0,0,1-3.25-2.82A3.057,3.057,0,0,1,43.5,12.279Z" transform="translate(-11 -1)" fill="#fff" fill-rule="evenodd"/>
</svg>
