<svg xmlns="http://www.w3.org/2000/svg" width="140.099" height="41.271" viewBox="0 0 140.099 41.271">
  <g id="logo2" transform="translate(-142.489 -2916.729)">
    <text id="_26andfour" data-name="26andfour" transform="translate(142.489 2953)" fill="#fee" font-size="23" font-family="Tahoma-Bold, Tahoma" font-weight="700"><tspan x="0" y="0">26andfour</tspan></text>
    <path id="Path_16" data-name="Path 16" d="M2.835,0A2.7,2.7,0,0,1,5.557,2.721L5.474,17.153a2.775,2.775,0,0,1-2.753,2.753A2.7,2.7,0,0,1,0,17.185L.083,2.753A2.775,2.775,0,0,1,2.835,0Z" transform="translate(276.889 2916.729) rotate(45)" fill="#009ffc"/>
    <path id="Path_17" data-name="Path 17" d="M2.835,0A2.7,2.7,0,0,1,5.557,2.721L5.474,17.153a2.775,2.775,0,0,1-2.753,2.753A2.7,2.7,0,0,1,0,17.185L.083,2.753A2.775,2.775,0,0,1,2.835,0Z" transform="translate(278.659 2925.688) rotate(45)" fill="#04d251"/>
  </g>
</svg>
