<svg xmlns="http://www.w3.org/2000/svg" width="141.099" height="40.271" viewBox="0 0 141.099 40.271">
  <g id="Logo" transform="translate(-139.489 -41.729)">
    <text id="_26andfour" data-name="26andfour" transform="translate(139.489 77)" fill="#707070" font-size="23" font-family="Tahoma-Bold, Tahoma" font-weight="700"><tspan x="0" y="0">26andfour</tspan></text>
    <path id="Path_1" data-name="Path 1" d="M2.835,0A2.7,2.7,0,0,1,5.557,2.721L5.474,17.153a2.775,2.775,0,0,1-2.753,2.753A2.7,2.7,0,0,1,0,17.185L.083,2.753A2.775,2.775,0,0,1,2.835,0Z" transform="translate(274.889 41.729) rotate(45)" fill="#009ffc"/>
    <path id="Path_2" data-name="Path 2" d="M2.835,0A2.7,2.7,0,0,1,5.557,2.721L5.474,17.153a2.775,2.775,0,0,1-2.753,2.753A2.7,2.7,0,0,1,0,17.185L.083,2.753A2.775,2.775,0,0,1,2.835,0Z" transform="translate(276.659 50.687) rotate(45)" fill="#04d251"/>
  </g>
</svg>
