<svg xmlns="http://www.w3.org/2000/svg" width="474.839" height="421.266" viewBox="0 0 474.839 421.266">
  <g id="Server" transform="translate(-648.188 -226.605)">
    <g id="pc1" transform="translate(706.862 301.078)">
      <path id="Path_3" data-name="Path 3" d="M21.863,21.863,98.549,0,76.016,76.016,0,98.549Z" transform="translate(69.685 0) rotate(45)" fill="#49b5f5"/>
      <path id="Path_4" data-name="Path 4" d="M21.863,21.863,98.549,0,76.016,76.016,0,98.549Z" transform="translate(69.685 75.968) rotate(45)" fill="#009ffc"/>
      <path id="Path_5" data-name="Path 5" d="M1972.01,300.082v75.994l69.261,37.816.158-76.455Z" transform="translate(-1972.01 -230.397)" fill="#009ffc"/>
      <path id="Path_7" data-name="Path 7" d="M1972.01,300.083v5.033l4.624,2.5.01-5.064Z" transform="translate(-1965.121 -219.328)" fill="#fff"/>
      <path id="Path_8" data-name="Path 8" d="M1972.01,300.083v5.033l16.376,9.047.01-5.064Z" transform="translate(-1952.991 -211.963)" fill="#075888"/>
      <path id="Path_9" data-name="Path 9" d="M1972.01,300.083v5.033l16.376,9.047.01-5.064Z" transform="translate(-1929.163 -199.833)" fill="#00fc54"/>
      <path id="Path_9-2" data-name="Path 9" d="M1972.01,300.083v5.033l16.376,9.047.01-5.064Z" transform="translate(-1929.163 -190.302)" fill="#00fc54"/>
      <path id="Path_9-3" data-name="Path 9" d="M1972.01,300.083v5.033l16.376,9.047.01-5.064Z" transform="translate(-1929.163 -180.771)" fill="#00fc54"/>
      <path id="Path_9-4" data-name="Path 9" d="M1972.01,300.083v5.033l16.376,9.047.01-5.064Z" transform="translate(-1929.163 -171.24)" fill="#00fc54"/>
      <path id="Path_9-5" data-name="Path 9" d="M1972.01,300.083v5.033l16.376,9.047.01-5.064Z" transform="translate(-1929.163 -161.709)" fill="#00fc54"/>
      <path id="Path_9-6" data-name="Path 9" d="M1972.01,300.083v5.033l16.376,9.047.01-5.064Z" transform="translate(-1929.163 -152.178)" fill="#00fc54"/>
      <path id="Path_9-7" data-name="Path 9" d="M1972.01,300.083v5.033l16.376,9.047.01-5.064Z" transform="translate(-1929.163 -142.647)" fill="#00fc54"/>
      <path id="Path_8-2" data-name="Path 8" d="M1972.01,300.083v5.033l16.376,9.047.01-5.064Z" transform="translate(-1952.991 -202.432)" fill="#075888"/>
      <path id="Path_8-3" data-name="Path 8" d="M1972.01,300.083v5.033l16.376,9.047.01-5.064Z" transform="translate(-1952.991 -192.901)" fill="#075888"/>
      <path id="Path_8-4" data-name="Path 8" d="M1972.01,300.083v5.033l16.376,9.047.01-5.064Z" transform="translate(-1952.991 -183.37)" fill="#075888"/>
      <path id="Path_8-5" data-name="Path 8" d="M1972.01,300.083v5.033l16.376,9.047.01-5.064Z" transform="translate(-1952.991 -173.839)" fill="#075888"/>
      <path id="Path_8-6" data-name="Path 8" d="M1972.01,300.083v5.033l16.376,9.047.01-5.064Z" transform="translate(-1952.991 -164.308)" fill="#075888"/>
      <path id="Path_8-7" data-name="Path 8" d="M1972.01,300.083v5.033l16.376,9.047.01-5.064Z" transform="translate(-1953.857 -155.644)" fill="#075888"/>
      <path id="Path_7-2" data-name="Path 7" d="M1972.01,300.083v5.033l4.624,2.5.01-5.064Z" transform="translate(-1965.121 -208.064)" fill="#fff"/>
      <path id="Path_7-3" data-name="Path 7" d="M1972.01,300.083v5.033l4.624,2.5.01-5.064Z" transform="translate(-1965.121 -196.8)" fill="#fff"/>
      <path id="Path_7-4" data-name="Path 7" d="M1972.01,300.083v5.033l4.624,2.5.01-5.064Z" transform="translate(-1965.121 -185.536)" fill="#fff"/>
      <path id="Path_7-5" data-name="Path 7" d="M1972.01,300.083v5.033l4.624,2.5.01-5.064Z" transform="translate(-1965.121 -174.273)" fill="#fff"/>
      <path id="Path_7-6" data-name="Path 7" d="M1972.01,300.083v5.033l4.624,2.5.01-5.064Z" transform="translate(-1965.121 -163.009)" fill="#fff"/>
      <path id="Path_6" data-name="Path 6" d="M2041.528,300.082v75.9l-69.359,37.767-.158-76.355Z" transform="translate(-1902.158 -230.249)" fill="#0073b6"/>
      <ellipse id="Ellipse_1" data-name="Ellipse 1" cx="13.213" cy="22.961" rx="13.213" ry="22.961" transform="translate(106.594 103.217) rotate(34)" fill="#09334c"/>
    </g>
    <path id="Path_13" data-name="Path 13" d="M2204.714,365.507l159.337,94.166" transform="translate(-1555 -67.822)" fill="#009ffc" stroke="#009ffc" stroke-width="6" stroke-dasharray="20 17"/>
    <g id="pc1-2" data-name="pc1" transform="translate(758.946 226.605)">
      <path id="Path_3-2" data-name="Path 3" d="M42.831,42.831,193.064,0,148.92,148.92,0,193.064Z" transform="translate(136.517 0) rotate(45)" fill="#49b5f5"/>
      <path id="Path_4-2" data-name="Path 4" d="M42.831,42.831,193.064,0,148.92,148.92,0,193.064Z" transform="translate(136.517 148.233) rotate(45)" fill="#009ffc"/>
      <path id="Path_5-2" data-name="Path 5" d="M1972.01,300.082V448.959L2107.7,523.043l.31-149.779Z" transform="translate(-1972.01 -164.157)" fill="#009ffc"/>
      <path id="Path_7-7" data-name="Path 7" d="M1972.01,300.083v9.86l9.058,4.906.021-9.92Z" transform="translate(-1958.514 -142.11)" fill="#fff"/>
      <path id="Path_8-8" data-name="Path 8" d="M1972.01,300.083v9.86l32.081,17.724.021-9.92Z" transform="translate(-1934.75 -127.711)" fill="#075888"/>
      <path id="Path_9-8" data-name="Path 9" d="M1972.01,300.083v9.86l32.081,17.724.021-9.92Z" transform="translate(-1888.071 -103.983)" fill="#00fc54"/>
      <path id="Path_9-9" data-name="Path 9" d="M1972.01,300.083v9.86l32.081,17.724.021-9.92Z" transform="translate(-1888.071 -85.339)" fill="#00fc54"/>
      <path id="Path_9-10" data-name="Path 9" d="M1972.01,300.083v9.86l32.081,17.724.021-9.92Z" transform="translate(-1888.071 -66.696)" fill="#00fc54"/>
      <path id="Path_9-11" data-name="Path 9" d="M1972.01,300.083v9.86l32.081,17.724.021-9.92Z" transform="translate(-1888.071 -48.052)" fill="#00fc54"/>
      <path id="Path_9-12" data-name="Path 9" d="M1972.01,300.083v9.86l32.081,17.724.021-9.92Z" transform="translate(-1888.071 -29.408)" fill="#00fc54"/>
      <path id="Path_9-13" data-name="Path 9" d="M1972.01,300.083v9.86l32.081,17.724.021-9.92Z" transform="translate(-1888.071 -10.764)" fill="#00fc54"/>
      <path id="Path_9-14" data-name="Path 9" d="M1972.01,300.083v9.86l32.081,17.724.021-9.92Z" transform="translate(-1888.071 7.879)" fill="#00fc54"/>
      <path id="Path_8-9" data-name="Path 8" d="M1972.01,300.083v9.86l32.081,17.724.021-9.92Z" transform="translate(-1934.75 -109.068)" fill="#075888"/>
      <path id="Path_8-10" data-name="Path 8" d="M1972.01,300.083v9.86l32.081,17.724.021-9.92Z" transform="translate(-1934.75 -90.424)" fill="#075888"/>
      <path id="Path_8-11" data-name="Path 8" d="M1972.01,300.083v9.86l32.081,17.724.021-9.92Z" transform="translate(-1934.75 -71.78)" fill="#075888"/>
      <path id="Path_8-12" data-name="Path 8" d="M1972.01,300.083v9.86l32.081,17.724.021-9.92Z" transform="translate(-1934.75 -53.136)" fill="#075888"/>
      <path id="Path_8-13" data-name="Path 8" d="M1972.01,300.083v9.86l32.081,17.724.021-9.92Z" transform="translate(-1934.75 -34.493)" fill="#075888"/>
      <path id="Path_8-14" data-name="Path 8" d="M1972.01,300.083v9.86l32.081,17.724.021-9.92Z" transform="translate(-1936.448 -17.544)" fill="#075888"/>
      <path id="Path_7-8" data-name="Path 7" d="M1972.01,300.083v9.86l9.058,4.906.021-9.92Z" transform="translate(-1958.514 -120.076)" fill="#fff"/>
      <path id="Path_7-9" data-name="Path 7" d="M1972.01,300.083v9.86l9.058,4.906.021-9.92Z" transform="translate(-1958.514 -98.041)" fill="#fff"/>
      <path id="Path_7-10" data-name="Path 7" d="M1972.01,300.083v9.86l9.058,4.906.021-9.92Z" transform="translate(-1958.514 -76.007)" fill="#fff"/>
      <path id="Path_7-11" data-name="Path 7" d="M1972.01,300.083v9.86l9.058,4.906.021-9.92Z" transform="translate(-1958.514 -53.972)" fill="#fff"/>
      <path id="Path_7-12" data-name="Path 7" d="M1972.01,300.083v9.86l9.058,4.906.021-9.92Z" transform="translate(-1958.514 -31.938)" fill="#fff"/>
      <path id="Path_6-2" data-name="Path 6" d="M2108.2,300.082V448.766l-135.878,73.987-.31-149.584Z" transform="translate(-1835.166 -163.867)" fill="#0073b6"/>
      <ellipse id="Ellipse_1-2" data-name="Ellipse 1" cx="25.886" cy="44.982" rx="25.886" ry="44.982" transform="translate(208.823 201.833) rotate(34)" fill="#09334c"/>
    </g>
    <path id="Path_10" data-name="Path 10" d="M2204.714,365.507l159.337,94.166" transform="translate(-1242.551 103.309)" fill="#009ffc" stroke="#009ffc" stroke-width="6" stroke-dasharray="20 17"/>
  </g>
</svg>
